<svg width="37" height="37" viewBox="0 0 37 37" fill="none" xmlns="http://www.w3.org/2000/svg">
<g clip-path="url(#clip0_582_661)">
<path d="M18.0706 0C8.09045 0 0 8.09045 0 18.0706C0 28.0507 8.09045 36.1412 18.0706 36.1412C28.0507 36.1412 36.1412 28.0507 36.1412 18.0706C36.1412 8.09045 28.0507 0 18.0706 0ZM24.9646 9.2026L22.4652 9.20371C20.5053 9.20371 20.1263 10.1351 20.1263 11.5016V14.5149H24.8001L24.7978 19.2345H20.1267V31.3461H15.2518V19.2345H11.1766V14.5149H15.2518V11.0342C15.2518 6.99494 17.7197 4.79504 21.3227 4.79504L24.965 4.80058V9.2026H24.9646Z" fill="#EC3139"/>
</g>
<defs>
<clipPath id="clip0_582_661">
<rect width="36.1412" height="36.1412" fill="white"/>
</clipPath>
</defs>
</svg>
