<svg width="37" height="37" viewBox="0 0 37 37" fill="none" xmlns="http://www.w3.org/2000/svg">
<g clip-path="url(#clip0_582_664)">
<path d="M18.2372 23.1955C21.1909 23.1955 23.5853 20.8752 23.5853 18.013C23.5853 15.1507 21.1909 12.8304 18.2372 12.8304C15.2835 12.8304 12.889 15.1507 12.889 18.013C12.889 20.8752 15.2835 23.1955 18.2372 23.1955Z" fill="#EC3139"/>
<path d="M26.5152 18.302C26.5152 22.7318 22.809 26.3222 18.2373 26.3222C13.6655 26.3222 9.95937 22.7318 9.95937 18.302C9.95937 17.5082 10.0792 16.7414 10.301 16.0171H7.85486V27.2669C7.85486 27.8496 8.33107 28.3254 8.9134 28.3254H27.4587C28.0414 28.3254 28.518 27.8496 28.518 27.2669V16.0171H26.1735C26.395 16.7414 26.5152 17.5082 26.5152 18.302Z" fill="#EC3139"/>
<path d="M24.2963 12.9812H27.3063C27.9659 12.9812 28.505 12.4421 28.505 11.7825V8.91266C28.505 8.25269 27.9659 7.71362 27.3063 7.71362H24.2963C23.6364 7.71362 23.0973 8.25269 23.0973 8.91266V11.7825C23.0969 12.4417 23.6364 12.9812 24.2963 12.9812Z" fill="#EC3139"/>
<path d="M18.2117 0C8.23156 0 0.141113 8.09045 0.141113 18.0706C0.141113 28.0507 8.23156 36.1412 18.2117 36.1412C28.1918 36.1412 36.2823 28.0507 36.2823 18.0706C36.2823 8.09045 28.1918 0 18.2117 0ZM28.1094 31.3868H8.31438C6.43356 31.3868 4.89585 29.9948 4.89585 27.969V8.1729C4.89585 6.1464 6.43356 4.75474 8.31438 4.75474H28.1094C29.9898 4.75474 31.5279 6.1464 31.5279 8.1729V27.969C31.5279 29.9948 29.9895 31.3868 28.1094 31.3868Z" fill="#EC3139"/>
</g>
<defs>
<clipPath id="clip0_582_664">
<rect width="36.1412" height="36.1412" fill="white" transform="translate(0.141113)"/>
</clipPath>
</defs>
</svg>
