<svg width="40" height="40" viewBox="0 0 40 40" fill="none" xmlns="http://www.w3.org/2000/svg">
<path d="M20 40C31.0457 40 40 31.0457 40 20C40 8.9543 31.0457 0 20 0C8.9543 0 0 8.9543 0 20C0 31.0457 8.9543 40 20 40Z" fill="#EC3139"/>
<path fill-rule="evenodd" clip-rule="evenodd" d="M13 11.1679C13 8.31783 15.2425 6 18 6C20.7574 6 22.9999 8.31783 23 11.168C23 11.593 22.9388 12.0233 22.8075 12.522C22.7162 12.8669 22.3675 13.0698 22.04 12.9755C21.7063 12.8811 21.51 12.5259 21.6013 12.1822C21.7025 11.7971 21.75 11.4754 21.75 11.1679C21.75 9.03101 20.0675 7.29197 18 7.29197C15.9326 7.29197 14.25 9.03101 14.25 11.1679C14.25 11.8075 14.4137 12.438 14.7388 13.04C14.9062 13.3514 14.7975 13.7455 14.4962 13.9186C14.4 13.9741 14.2962 14 14.1937 14C13.9737 14 13.7612 13.8798 13.6462 13.6679C13.2175 12.8708 13 12.0297 13 11.1679ZM29.4174 17.75C28.8866 17.75 28.392 17.9062 27.9814 18.1725C27.6276 17.2 26.6681 16.5 25.5434 16.5C25.0127 16.5 24.5181 16.6563 24.1075 16.9225C23.7537 15.95 22.7942 15.25 21.6695 15.25C21.1995 15.25 20.7578 15.3725 20.3782 15.5863V11.5C20.3782 10.1212 19.2199 9 17.7955 9C16.3712 9 15.2129 10.1212 15.2129 11.5V22.125L12.9686 20.4963C11.6373 19.53 9.74424 19.66 8.56656 20.7988C7.81115 21.53 7.81115 22.7188 8.56656 23.45L17.7633 32.3525C18.8609 33.415 20.3201 34 21.8723 34H24.8978C28.8144 34 32 30.9163 32 27.125V20.25C31.9999 18.8712 30.8416 17.75 29.4174 17.75ZM30.7086 27.125C30.7086 30.2262 28.1015 32.75 24.8977 32.75H21.8735C20.6661 32.75 19.531 32.295 18.6775 31.4687L9.48075 22.5663C9.22895 22.3225 9.22895 21.9262 9.48075 21.6825C9.88104 21.295 10.4144 21.0975 10.9516 21.0975C11.3881 21.0975 11.8258 21.2287 12.1951 21.4962L15.4712 23.875C15.6662 24.0174 15.9283 24.0399 16.1479 23.9337C16.3661 23.8275 16.5043 23.6112 16.5043 23.375V11.5C16.5043 10.8112 17.0841 10.25 17.7955 10.25C18.5071 10.25 19.0868 10.8113 19.0868 11.5V20.875C19.0868 21.22 19.3761 21.5 19.7325 21.5C20.0889 21.5 20.3782 21.22 20.3782 20.875V17.75C20.3782 17.0613 20.958 16.5001 21.6695 16.5001C22.381 16.5001 22.9608 17.0613 22.9608 17.75V20.875C22.9608 21.22 23.2501 21.5 23.6065 21.5C23.9629 21.5 24.2521 21.22 24.2521 20.875V19C24.2521 18.3112 24.8319 17.75 25.5434 17.75C26.2549 17.75 26.8347 18.3113 26.8347 19V20.875C26.8347 21.22 27.124 21.5 27.4804 21.5C27.8368 21.5 28.1261 21.22 28.1261 20.875V20.25C28.1261 19.5612 28.7059 19 29.4174 19C30.1288 19 30.7086 19.5613 30.7086 20.25V27.125Z" fill="white"/>
</svg>
