<svg width="37" height="37" viewBox="0 0 37 37" fill="none" xmlns="http://www.w3.org/2000/svg">
<g clip-path="url(#clip0_582_656)">
<path d="M14.7777 22.0313C17.4893 20.6252 20.1773 19.232 22.89 17.8252C20.1691 16.4054 17.4819 15.0042 14.7777 13.5929C14.7777 16.4154 14.7777 19.2091 14.7777 22.0313Z" fill="#EC3139"/>
<path d="M18.0706 0C8.09082 0 0 8.09045 0 18.0706C0 28.0507 8.09082 36.1412 18.0706 36.1412C28.0504 36.1412 36.1412 28.0507 36.1412 18.0706C36.1412 8.09045 28.0504 0 18.0706 0ZM30.383 24.1024C30.0702 25.4593 28.9603 26.4601 27.6244 26.6091C24.4606 26.963 21.2588 26.9648 18.0698 26.963C14.8809 26.9648 11.6783 26.963 8.51379 26.6091C7.17795 26.4601 6.06876 25.4593 5.75671 24.1024C5.31192 22.1694 5.31192 20.0601 5.31192 18.0706C5.31192 16.0811 5.3171 13.971 5.76188 12.0388C6.07394 10.6819 7.18313 9.68066 8.51897 9.53129C11.6835 9.17782 14.8861 9.17598 18.075 9.17782C21.2632 9.17598 24.4658 9.17782 27.6292 9.53129C28.9658 9.68066 30.0757 10.6815 30.3878 12.0388C30.8326 13.9714 30.8289 16.0811 30.8289 18.0706C30.8289 20.0601 30.8278 22.1698 30.383 24.1024Z" fill="#EC3139"/>
</g>
<defs>
<clipPath id="clip0_582_656">
<rect width="36.1412" height="36.1412" fill="white"/>
</clipPath>
</defs>
</svg>
